<svg viewBox="0 0 70 70" fill="#ffffff" xmlns="http://www.w3.org/2000/svg"><path d="M38.163 27h-2.77v11.117c-.195 2.413-3.6 2.932-4.469.649-.69-1.816 1.003-3.599 2.847-3.032V32.91c-2.634-.372-5.17 1.436-5.675 4.028-.668 3.43 2.231 6.49 5.703 6.011 2.373-.327 4.216-2.33 4.363-4.711v-5.88a6.741 6.741 0 0 0 2.805 1.142c.343.052.686.07 1.033.085v-2.761c-2.09.013-3.85-1.744-3.837-3.825Z"></path><path d="M38.163 27c-.013 2.082 1.748 3.838 3.837 3.825v2.761a9.508 9.508 0 0 1-1.033-.085 6.746 6.746 0 0 1-2.804-1.142v5.88c-.147 2.38-1.99 4.385-4.364 4.712-3.471.477-6.37-2.581-5.703-6.012.506-2.592 3.04-4.4 5.675-4.028v2.823c-1.844-.567-3.538 1.216-2.847 3.032.869 2.283 4.274 1.764 4.47-.649L35.391 27h2.77Z"></path></svg>