<svg viewBox="0 0 70 70" fill="#ffffff" xmlns="http://www.w3.org/2000/svg"><path d="M32.032 41.867c6.037 0 9.34-5.336 9.34-9.962 0-.152 0-.303-.01-.453A6.943 6.943 0 0 0 43 29.639c-.6.284-1.235.47-1.885.551a3.484 3.484 0 0 0 1.443-1.936 6.337 6.337 0 0 1-2.085.85 3.228 3.228 0 0 0-1.862-1.058 3.108 3.108 0 0 0-2.082.369 3.423 3.423 0 0 0-1.442 1.643 3.72 3.72 0 0 0-.208 2.239 8.869 8.869 0 0 1-3.747-1.062 9.46 9.46 0 0 1-3.018-2.596 3.707 3.707 0 0 0-.36 2.551 3.51 3.51 0 0 0 1.376 2.123 3.105 3.105 0 0 1-1.49-.439v.045c0 .808.263 1.592.743 2.217a3.255 3.255 0 0 0 1.89 1.215c-.483.14-.99.161-1.482.06.21.696.619 1.304 1.168 1.74a3.16 3.16 0 0 0 1.9.692 6.33 6.33 0 0 1-4.078 1.501c-.26 0-.522-.017-.781-.05a8.875 8.875 0 0 0 5.032 1.57"></path></svg>